<svg xmlns="http://www.w3.org/2000/svg" width="256px" height="256px" viewBox="0 0 48.00 48.00" fill="#ef8622" stroke="#ef8622" transform="rotate(90)" stroke-width="0.00048000000000000007"><g id="SVGRepo_bgCarrier" stroke-width="0"></g><g id="SVGRepo_tracerCarrier" stroke-linecap="round" stroke-linejoin="round"></g><g id="SVGRepo_iconCarrier"><title>pipeline</title><g id="Layer_2" data-name="Layer 2"><g id="invisible_box" data-name="invisible box"><rect width="48" height="48" fill="none"></rect></g><g id="icons_Q2" data-name="icons Q2"><path d="M40,30a2,2,0,0,0-2,2v1H22a2,2,0,0,1,0-4h4A12,12,0,0,0,26,5H10V4A2,2,0,0,0,6,4V16a2,2,0,0,0,4,0V15H26a2,2,0,0,1,0,4H22a12,12,0,0,0,0,24H38v1a2,2,0,0,0,4,0V32A2,2,0,0,0,40,30ZM22,39a8,8,0,0,1,0-16h4a6,6,0,0,0,0-12H10V9H26a8,8,0,0,1,0,16H22a6,6,0,0,0,0,12H38v2Z"></path></g></g></g></svg>